<svg width="25" height="24" viewBox="0 0 25 24" fill="none" xmlns="http://www.w3.org/2000/svg">
<mask id="mask0_9_339" style="mask-type:alpha" maskUnits="userSpaceOnUse" x="0" y="0" width="25" height="24">
<rect x="0.25" width="24" height="24" fill="#D9D9D9"/>
</mask>
<g mask="url(#mask0_9_339)">
<path d="M6.1 17.1C6.95 16.45 7.9 15.9375 8.95 15.5625C10 15.1875 11.1 15 12.25 15C13.4 15 14.5 15.1875 15.55 15.5625C16.6 15.9375 17.55 16.45 18.4 17.1C18.9833 16.4167 19.4375 15.6417 19.7625 14.775C20.0875 13.9083 20.25 12.9833 20.25 12C20.25 9.78333 19.4708 7.89583 17.9125 6.3375C16.3542 4.77917 14.4667 4 12.25 4C10.0333 4 8.14583 4.77917 6.5875 6.3375C5.02917 7.89583 4.25 9.78333 4.25 12C4.25 12.9833 4.4125 13.9083 4.7375 14.775C5.0625 15.6417 5.51667 16.4167 6.1 17.1ZM12.25 13C11.2667 13 10.4375 12.6625 9.7625 11.9875C9.0875 11.3125 8.75 10.4833 8.75 9.5C8.75 8.51667 9.0875 7.6875 9.7625 7.0125C10.4375 6.3375 11.2667 6 12.25 6C13.2333 6 14.0625 6.3375 14.7375 7.0125C15.4125 7.6875 15.75 8.51667 15.75 9.5C15.75 10.4833 15.4125 11.3125 14.7375 11.9875C14.0625 12.6625 13.2333 13 12.25 13ZM12.25 22C10.8667 22 9.56667 21.7375 8.35 21.2125C7.13333 20.6875 6.075 19.975 5.175 19.075C4.275 18.175 3.5625 17.1167 3.0375 15.9C2.5125 14.6833 2.25 13.3833 2.25 12C2.25 10.6167 2.5125 9.31667 3.0375 8.1C3.5625 6.88333 4.275 5.825 5.175 4.925C6.075 4.025 7.13333 3.3125 8.35 2.7875C9.56667 2.2625 10.8667 2 12.25 2C13.6333 2 14.9333 2.2625 16.15 2.7875C17.3667 3.3125 18.425 4.025 19.325 4.925C20.225 5.825 20.9375 6.88333 21.4625 8.1C21.9875 9.31667 22.25 10.6167 22.25 12C22.25 13.3833 21.9875 14.6833 21.4625 15.9C20.9375 17.1167 20.225 18.175 19.325 19.075C18.425 19.975 17.3667 20.6875 16.15 21.2125C14.9333 21.7375 13.6333 22 12.25 22Z" fill="#5C631D"/>
</g>
</svg>
