<svg width="19" height="20" viewBox="0 0 19 20" fill="none" xmlns="http://www.w3.org/2000/svg">
<path d="M2.75 20C2.2 20 1.72917 19.8042 1.3375 19.4125C0.945833 19.0208 0.75 18.55 0.75 18V4C0.75 3.45 0.945833 2.97917 1.3375 2.5875C1.72917 2.19583 2.2 2 2.75 2H3.75V1C3.75 0.716667 3.84583 0.479167 4.0375 0.2875C4.22917 0.0958333 4.46667 0 4.75 0C5.03333 0 5.27083 0.0958333 5.4625 0.2875C5.65417 0.479167 5.75 0.716667 5.75 1V2H13.75V1C13.75 0.716667 13.8458 0.479167 14.0375 0.2875C14.2292 0.0958333 14.4667 0 14.75 0C15.0333 0 15.2708 0.0958333 15.4625 0.2875C15.6542 0.479167 15.75 0.716667 15.75 1V2H16.75C17.3 2 17.7708 2.19583 18.1625 2.5875C18.5542 2.97917 18.75 3.45 18.75 4V18C18.75 18.55 18.5542 19.0208 18.1625 19.4125C17.7708 19.8042 17.3 20 16.75 20H2.75ZM2.75 18H16.75V8H2.75V18ZM9.75 12C9.46667 12 9.22917 11.9042 9.0375 11.7125C8.84583 11.5208 8.75 11.2833 8.75 11C8.75 10.7167 8.84583 10.4792 9.0375 10.2875C9.22917 10.0958 9.46667 10 9.75 10C10.0333 10 10.2708 10.0958 10.4625 10.2875C10.6542 10.4792 10.75 10.7167 10.75 11C10.75 11.2833 10.6542 11.5208 10.4625 11.7125C10.2708 11.9042 10.0333 12 9.75 12ZM5.75 12C5.46667 12 5.22917 11.9042 5.0375 11.7125C4.84583 11.5208 4.75 11.2833 4.75 11C4.75 10.7167 4.84583 10.4792 5.0375 10.2875C5.22917 10.0958 5.46667 10 5.75 10C6.03333 10 6.27083 10.0958 6.4625 10.2875C6.65417 10.4792 6.75 10.7167 6.75 11C6.75 11.2833 6.65417 11.5208 6.4625 11.7125C6.27083 11.9042 6.03333 12 5.75 12ZM13.75 12C13.4667 12 13.2292 11.9042 13.0375 11.7125C12.8458 11.5208 12.75 11.2833 12.75 11C12.75 10.7167 12.8458 10.4792 13.0375 10.2875C13.2292 10.0958 13.4667 10 13.75 10C14.0333 10 14.2708 10.0958 14.4625 10.2875C14.6542 10.4792 14.75 10.7167 14.75 11C14.75 11.2833 14.6542 11.5208 14.4625 11.7125C14.2708 11.9042 14.0333 12 13.75 12ZM9.75 16C9.46667 16 9.22917 15.9042 9.0375 15.7125C8.84583 15.5208 8.75 15.2833 8.75 15C8.75 14.7167 8.84583 14.4792 9.0375 14.2875C9.22917 14.0958 9.46667 14 9.75 14C10.0333 14 10.2708 14.0958 10.4625 14.2875C10.6542 14.4792 10.75 14.7167 10.75 15C10.75 15.2833 10.6542 15.5208 10.4625 15.7125C10.2708 15.9042 10.0333 16 9.75 16ZM5.75 16C5.46667 16 5.22917 15.9042 5.0375 15.7125C4.84583 15.5208 4.75 15.2833 4.75 15C4.75 14.7167 4.84583 14.4792 5.0375 14.2875C5.22917 14.0958 5.46667 14 5.75 14C6.03333 14 6.27083 14.0958 6.4625 14.2875C6.65417 14.4792 6.75 14.7167 6.75 15C6.75 15.2833 6.65417 15.5208 6.4625 15.7125C6.27083 15.9042 6.03333 16 5.75 16ZM13.75 16C13.4667 16 13.2292 15.9042 13.0375 15.7125C12.8458 15.5208 12.75 15.2833 12.75 15C12.75 14.7167 12.8458 14.4792 13.0375 14.2875C13.2292 14.0958 13.4667 14 13.75 14C14.0333 14 14.2708 14.0958 14.4625 14.2875C14.6542 14.4792 14.75 14.7167 14.75 15C14.75 15.2833 14.6542 15.5208 14.4625 15.7125C14.2708 15.9042 14.0333 16 13.75 16Z" fill="#1C1B1F"/>
</svg>
